<svg xmlns="http://www.w3.org/2000/svg" xmlns:xlink="http://www.w3.org/1999/xlink" version="1.1" x="0px" y="0px" viewBox="0 0 26 32.5" style="enable-background:new 0 0 26 26;" xml:space="preserve"><rect x="8" y="19.75" width="1" height="1"/><rect x="7" y="5.25" width="12" height="1"/><rect x="13" y="15.25" width="6" height="1"/><rect x="19" y="6.25" width="1" height="1"/><rect x="19" y="14.25" width="1" height="1"/><rect x="6" y="6.25" width="1" height="1"/><rect x="5" y="7.25" width="1" height="7"/><rect x="20" y="7.25" width="1" height="7"/><rect x="6" y="14.25" width="1" height="1"/><polygon points="8,16.25 8,17.25 9,17.25 9,16.25 9,15.25 7,15.25 7,16.25 "/><polygon points="7,18.25 7,20.25 8,20.25 8,18.25 8,17.25 7,17.25 "/><rect x="12" y="16.25" width="1" height="1"/><rect x="11" y="17.25" width="1" height="1"/><rect x="10" y="18.25" width="1" height="1"/><rect x="9" y="19.25" width="1" height="1"/></svg>