<svg xmlns="http://www.w3.org/2000/svg" xmlns:xlink="http://www.w3.org/1999/xlink" version="1.1" x="0px" y="0px" viewBox="0 0 100 125" enable-background="new 0 0 100 100" xml:space="preserve"><path d="M72.5500183,57.8450317v-1.960022v-1.960022h-1.960022h-1.960022v-1.9599609v-1.960022h-1.9599609h-1.960022v-1.9599609  v-1.960022h-1.9699707h-1.960022h-1.960022h-1.9599609h-1.960022h-1.960022H50.980011h-1.960022h-1.960022h-1.9599609h-1.960022  h-1.960022h-1.9699707h-1.960022h-1.9599609V44.125v-1.9699707h-1.960022h-1.960022v-1.960022v-1.960022v-1.9599609v-1.960022  v-1.9599609v-1.960022h1.960022h1.960022v-1.960022v-1.9599609h1.9599609h1.960022v-1.960022v-1.960022v-1.9599609v-1.960022  h-1.960022h-1.9599609v1.960022v1.9599609h-1.960022h-1.960022v1.960022v1.960022h-1.9599609h-1.960022v1.9599609v1.960022  h-1.9599609h-1.960022v1.960022v1.9599609v1.960022v1.9599609v1.960022v1.960022h1.960022h1.9599609V44.125v1.960022h1.960022  h1.9599609v1.960022v1.9599609h1.960022h1.960022v1.960022v1.9599609h1.9599609h1.960022h1.9699707v1.960022v1.960022v1.9599609  v1.960022v1.960022v1.9599609v1.9700317v1.9599609v1.960022v1.960022v1.9599609v1.960022v1.960022V81.375v1.960022v1.960022  v1.9599609h1.960022h1.960022h1.9599609v-1.9599609v-1.960022V81.375h1.960022h1.960022v-1.9599609v-1.960022v-1.960022v-1.9599609  h-1.960022h-1.960022v-1.960022v-1.960022v-1.9599609v-1.9700317v-1.9599609v-1.960022v-1.960022v-1.9599609v-1.960022v-1.960022  h1.960022h1.960022h1.9599609v1.960022v1.960022v1.9599609v1.960022v1.960022v1.9599609v1.9700317v1.9599609v1.960022v1.960022  v1.9599609v1.960022v1.960022V81.375v1.960022v1.960022v1.9599609h1.960022h1.960022h1.9599609v-1.9599609v-1.960022V81.375  h1.960022h1.960022h1.9699707v-1.9599609v-1.960022h1.960022h1.9599609v-1.960022v-1.9599609h1.960022h1.960022v-1.960022v-1.960022  h1.9599609h1.960022v-1.9599609v-1.9700317v-1.9599609v-1.960022v-1.960022v-1.9599609h-1.960022H72.5500183z   M68.6299744,69.6149902h-1.9599609h-1.960022v1.960022v1.960022h-1.9699707h-1.960022h-1.960022v-1.960022v-1.960022v-1.9599609  v-1.9700317v-1.9599609v-1.960022v-1.960022v-1.9599609v-1.960022v-1.960022h1.960022h1.960022h1.9699707v1.960022v1.960022  h1.960022h1.9599609v1.9599609v1.960022v1.960022v1.9599609v1.9700317V69.6149902z"/><polygon points="56.8600159,44.125 58.8199768,44.125 58.8199768,42.1550293 58.8199768,40.1950073 58.8199768,38.2349854   58.8199768,36.2750244 58.8199768,34.3150024 58.8199768,32.3550415 58.8199768,30.3950195 58.8199768,28.4349976   58.8199768,26.4750366 60.7799988,26.4750366 62.7400208,26.4750366 64.7099915,26.4750366 64.7099915,28.4349976   64.7099915,30.3950195 66.6700134,30.3950195 68.6299744,30.3950195 68.6299744,32.3550415 68.6299744,34.3150024   70.5899963,34.3150024 72.5500183,34.3150024 72.5500183,32.3550415 72.5500183,30.3950195 72.5500183,28.4349976   72.5500183,26.4750366 70.5899963,26.4750366 68.6299744,26.4750366 68.6299744,24.5150146 68.6299744,22.5549927   66.6700134,22.5549927 64.7099915,22.5549927 64.7099915,20.5950317 64.7099915,18.6350098 62.7400208,18.6350098   60.7799988,18.6350098 58.8199768,18.6350098 58.8199768,16.6650391 58.8199768,14.7050171 58.8199768,12.7449951   56.8600159,12.7449951 54.8999939,12.7449951 52.9399719,12.7449951 52.9399719,14.7050171 52.9399719,16.6650391   52.9399719,18.6350098 52.9399719,20.5950317 52.9399719,22.5549927 52.9399719,24.5150146 52.9399719,26.4750366   52.9399719,28.4349976 52.9399719,30.3950195 52.9399719,32.3550415 52.9399719,34.3150024 52.9399719,36.2750244   52.9399719,38.2349854 52.9399719,40.1950073 52.9399719,42.1550293 52.9399719,44.125 54.8999939,44.125 "/><polygon points="45.1000061,44.125 47.059967,44.125 47.059967,42.1550293 47.059967,40.1950073 47.059967,38.2349854   47.059967,36.2750244 47.059967,34.3150024 47.059967,32.3550415 47.059967,30.3950195 47.059967,28.4349976 47.059967,26.4750366   49.019989,26.4750366 50.980011,26.4750366 50.980011,24.5150146 50.980011,22.5549927 50.980011,20.5950317 50.980011,18.6350098   49.019989,18.6350098 47.059967,18.6350098 47.059967,16.6650391 47.059967,14.7050171 47.059967,12.7449951 45.1000061,12.7449951   43.1399841,12.7449951 41.1799622,12.7449951 41.1799622,14.7050171 41.1799622,16.6650391 41.1799622,18.6350098   41.1799622,20.5950317 41.1799622,22.5549927 41.1799622,24.5150146 41.1799622,26.4750366 41.1799622,28.4349976   41.1799622,30.3950195 41.1799622,32.3550415 41.1799622,34.3150024 41.1799622,36.2750244 41.1799622,38.2349854   41.1799622,40.1950073 41.1799622,42.1550293 41.1799622,44.125 43.1399841,44.125 "/><polygon points="35.2900085,73.5350342 35.2900085,71.5750122 35.2900085,69.6149902 33.3299866,69.6149902 31.3699646,69.6149902   31.3699646,67.6550293 31.3699646,65.6849976 29.4100037,65.6849976 27.4499817,65.6849976 27.4499817,67.6550293   27.4499817,69.6149902 27.4499817,71.5750122 27.4499817,73.5350342 29.4100037,73.5350342 31.3699646,73.5350342   31.3699646,75.4949951 31.3699646,77.4550171 33.3299866,77.4550171 35.2900085,77.4550171 35.2900085,79.4150391   35.2900085,81.375 37.2499695,81.375 39.2099915,81.375 39.2099915,79.4150391 39.2099915,77.4550171 39.2099915,75.4949951   39.2099915,73.5350342 37.2499695,73.5350342 "/></svg>