<svg xmlns="http://www.w3.org/2000/svg" version="1.1" viewBox="-5.0 -10.0 110.0 135.0">
 <path d="m28.062 15.98h-4.9531v-4.9531h4.9531zm19.805 24.75v4.9531h-4.957v-4.9531zm19.797 14.852h4.9531v4.9531h-4.9531zm-24.754-9.8984v4.9492h-4.9492v-4.9492zm-4.9492 4.9492v4.9492h-4.9492v-4.9492zm-9.8984 9.9023v4.9492h-4.9531v-4.9492zm4.9492-4.9531v4.9531h-4.9492v-4.9531zm39.605 4.9531h4.9492v4.9492h-4.9492zm-19.801-19.805h4.9492v4.9531h-4.9492zm9.8984 9.9023h4.9492v4.9492h-4.9492zm-4.9492-4.9492h4.9492v4.9492h-4.9492zm14.852-29.703v-4.9531h4.9492v4.9531zm-29.707 14.852h4.957v4.9492h-4.957zm4.957 4.9492h4.9492v4.9492h-4.9492zm9.8984-4.9492v-4.9531h4.9492v4.9531zm-19.805-4.9531h4.9492v4.9531h-4.9492zm14.855 9.9023v-4.9492h4.9492v4.9492zm-24.754-19.801h4.9492v4.9492h-4.9492zm34.652 9.8984v-4.9492h4.9492v4.9492zm-29.703-4.9492h4.9492v4.9492h-4.9492zm34.652 0v-4.9492h4.9531v4.9492zm-47.523" fill-rule="evenodd"/>
</svg>