<svg xmlns="http://www.w3.org/2000/svg" xmlns:xlink="http://www.w3.org/1999/xlink" xmlns:sketch="http://www.bohemiancoding.com/sketch/ns" viewBox="0 0 91 113.75" version="1.1" x="0px" y="0px"><title>rect21468</title><desc>Created with Sketch.</desc><g stroke="none" stroke-width="1" fill="none" fill-rule="evenodd" sketch:type="MSPage"><path d="M22.6357,0.5051 L22.6357,8.0051 L30.1357,8.0051 L37.6357,8.0051 L45.1357,8.0051 L52.6357,8.0051 L60.1357,8.0051 L67.6357,8.0051 L67.6357,0.5051 L60.1357,0.5051 L52.6357,0.5051 L45.1357,0.5051 L37.6357,0.5051 L30.1357,0.5051 L22.6357,0.5051 L22.6357,0.5051 Z M67.6357,8.0051 L67.6357,15.5051 L75.1357,15.5051 L75.1357,8.0051 L67.6357,8.0051 L67.6357,8.0051 Z M75.1357,15.5051 L75.1357,23.0051 L82.6357,23.0051 L82.6357,15.5051 L75.1357,15.5051 L75.1357,15.5051 Z M82.6357,23.0051 L82.6357,30.5051 L82.6357,38.0051 L82.6357,45.5051 L82.6357,53.0051 L82.6357,60.5051 L82.6357,68.0051 L90.1357,68.0051 L90.1357,60.5051 L90.1357,53.0051 L90.1357,45.5051 L90.1357,38.0051 L90.1357,30.5051 L90.1357,23.0051 L82.6357,23.0051 L82.6357,23.0051 Z M82.6357,68.0051 L75.1357,68.0051 L75.1357,75.5051 L82.6357,75.5051 L82.6357,68.0051 L82.6357,68.0051 Z M75.1357,75.5051 L67.6357,75.5051 L67.6357,83.0051 L75.1357,83.0051 L75.1357,75.5051 L75.1357,75.5051 Z M67.6357,83.0051 L60.1357,83.0051 L52.6357,83.0051 L45.1357,83.0051 L37.6357,83.0051 L30.1357,83.0051 L22.6357,83.0051 L22.6357,90.5051 L30.1357,90.5051 L37.6357,90.5051 L45.1357,90.5051 L52.6357,90.5051 L60.1357,90.5051 L67.6357,90.5051 L67.6357,83.0051 L67.6357,83.0051 Z M22.6357,83.0051 L22.6357,75.5051 L15.1357,75.5051 L15.1357,83.0051 L22.6357,83.0051 L22.6357,83.0051 Z M15.1357,75.5051 L15.1357,68.0051 L7.6357,68.0051 L7.6357,75.5051 L15.1357,75.5051 L15.1357,75.5051 Z M7.6357,68.0051 L7.6357,60.5051 L7.6357,53.0051 L7.6357,45.5051 L7.6357,38.0051 L7.6357,30.5051 L7.6357,23.0051 L0.1357,23.0051 L0.1357,30.5051 L0.1357,38.0051 L0.1357,45.5051 L0.1357,53.0051 L0.1357,60.5051 L0.1357,68.0051 L7.6357,68.0051 L7.6357,68.0051 Z M7.6357,23.0051 L15.1357,23.0051 L15.1357,15.5051 L7.6357,15.5051 L7.6357,23.0051 L7.6357,23.0051 Z M15.1357,15.5051 L22.6357,15.5051 L22.6357,8.0051 L15.1357,8.0051 L15.1357,15.5051 L15.1357,15.5051 Z M22.6357,23.0051 L22.6357,30.5051 L22.6357,38.0051 L22.6357,45.5051 L30.1357,45.5051 L30.1357,53.0051 L37.6357,53.0051 L37.6357,60.5051 L45.1357,60.5051 L45.1357,68.0051 L52.6357,68.0051 L52.6357,60.5051 L60.1357,60.5051 L60.1357,53.0051 L67.6357,53.0051 L67.6357,45.5051 L60.1357,45.5051 L60.1357,38.0051 L52.6357,38.0051 L52.6357,30.5051 L45.1357,30.5051 L45.1357,23.0051 L37.6357,23.0051 L30.1357,23.0051 L22.6357,23.0051 L22.6357,23.0051 Z M30.1357,30.5051 L37.6357,30.5051 L37.6357,38.0051 L30.1357,38.0051 L30.1357,30.5051 L30.1357,30.5051 Z" fill="#000000" sketch:type="MSShapeGroup"/></g><text x="0" y="106" fill="#000000" font-size="5px" font-weight="bold" font-family="'Helvetica Neue', Helvetica, Arial-Unicode, Arial, Sans-serif">Created by Bluetip Design</text><text x="0" y="111" fill="#000000" font-size="5px" font-weight="bold" font-family="'Helvetica Neue', Helvetica, Arial-Unicode, Arial, Sans-serif">from the Noun Project</text></svg>