<svg xmlns="http://www.w3.org/2000/svg" xmlns:xlink="http://www.w3.org/1999/xlink" xmlns:sketch="http://www.bohemiancoding.com/sketch/ns" viewBox="0 0 91 113.75" version="1.1" x="0px" y="0px"><title>rect24852</title><desc>Created with Sketch.</desc><g stroke="none" stroke-width="1" fill="none" fill-rule="evenodd" sketch:type="MSPage"><path d="M22.581552,0.84467 L22.581552,8.34467 L30.081552,8.34467 L37.58155,8.34467 L45.08155,8.34467 L52.58155,8.34467 L60.08155,8.34467 L67.58155,8.34467 L67.58155,0.84467 L60.08155,0.84467 L52.58155,0.84467 L45.08155,0.84467 L37.58155,0.84467 L30.081552,0.84467 L22.581552,0.84467 L22.581552,0.84467 Z M67.58155,8.34467 L67.58155,15.84467 L75.08155,15.84467 L75.08155,8.34467 L67.58155,8.34467 L67.58155,8.34467 Z M75.08155,15.84467 L75.08155,23.34467 L82.58155,23.34467 L82.58155,15.84467 L75.08155,15.84467 L75.08155,15.84467 Z M82.58155,23.34467 L82.58155,30.84467 L82.58155,38.34467 L82.58155,45.84467 L82.58155,53.34467 L82.58155,60.84467 L82.58155,68.34467 L90.08155,68.34467 L90.08155,60.84467 L90.08155,53.34467 L90.08155,45.84467 L90.08155,38.34467 L90.08155,30.84467 L90.08155,23.34467 L82.58155,23.34467 L82.58155,23.34467 Z M82.58155,68.34467 L75.08155,68.34467 L75.08155,75.84467 L82.58155,75.84467 L82.58155,68.34467 L82.58155,68.34467 Z M75.08155,75.84467 L67.58155,75.84467 L67.58155,83.34467 L75.08155,83.34467 L75.08155,75.84467 L75.08155,75.84467 Z M67.58155,83.34467 L60.08155,83.34467 L52.58155,83.34467 L45.08155,83.34467 L37.58155,83.34467 L30.081552,83.34467 L22.581552,83.34467 L22.581552,90.84467 L30.081552,90.84467 L37.58155,90.84467 L45.08155,90.84467 L52.58155,90.84467 L60.08155,90.84467 L67.58155,90.84467 L67.58155,83.34467 L67.58155,83.34467 Z M22.581552,83.34467 L22.581552,75.84467 L15.081552,75.84467 L15.081552,83.34467 L22.581552,83.34467 L22.581552,83.34467 Z M15.081552,75.84467 L15.081552,68.34467 L7.581552,68.34467 L7.581552,75.84467 L15.081552,75.84467 L15.081552,75.84467 Z M7.581552,68.34467 L7.581552,60.84467 L7.581552,53.34467 L7.581552,45.84467 L7.581552,38.34467 L7.581552,30.84467 L7.581552,23.34467 L0.081552,23.34467 L0.081552,30.84467 L0.081552,38.34467 L0.081552,45.84467 L0.081552,53.34467 L0.081552,60.84467 L0.081552,68.34467 L7.581552,68.34467 L7.581552,68.34467 Z M7.581552,23.34467 L15.081552,23.34467 L15.081552,15.84467 L7.581552,15.84467 L7.581552,23.34467 L7.581552,23.34467 Z M15.081552,15.84467 L22.581552,15.84467 L22.581552,8.34467 L15.081552,8.34467 L15.081552,15.84467 L15.081552,15.84467 Z M22.581552,30.84467 L22.581552,38.34467 L30.081552,38.34467 L30.081552,30.84467 L22.581552,30.84467 L22.581552,30.84467 Z M37.58155,30.84467 L37.58155,38.34467 L45.08155,38.34467 L52.58155,38.34467 L60.08155,38.34467 L67.58155,38.34467 L67.58155,30.84467 L60.08155,30.84467 L52.58155,30.84467 L45.08155,30.84467 L37.58155,30.84467 L37.58155,30.84467 Z M22.581552,53.34467 L22.581552,60.84467 L30.081552,60.84467 L30.081552,53.34467 L22.581552,53.34467 L22.581552,53.34467 Z M37.58155,53.34467 L37.58155,60.84467 L45.08155,60.84467 L52.58155,60.84467 L60.08155,60.84467 L67.58155,60.84467 L67.58155,53.34467 L60.08155,53.34467 L52.58155,53.34467 L45.08155,53.34467 L37.58155,53.34467 L37.58155,53.34467 Z" fill="#000000" sketch:type="MSShapeGroup"/></g></svg>