<svg xmlns="http://www.w3.org/2000/svg" xmlns:xlink="http://www.w3.org/1999/xlink" version="1.1" x="0px" y="0px" viewBox="0 0 100 125" enable-background="new 0 0 100 100" xml:space="preserve"><path d="M78.187561,16.9124985h-2.4500275h-2.4500275h-2.4624634h-2.4500275h-2.4500275v2.4500275h-2.4499512h-2.4500275H58.575058  h-2.4500275v2.4499512h-2.4500275h-2.4499512h-2.4500275h-2.4500275v2.4500275h-2.4499512h-2.4625397h-2.4499512h-2.4500275  v2.4499512v2.4500275H34.0625v2.4500275v2.4624634v2.4500275v2.4500275v2.4499512v2.4500275v2.4499512v2.4500275v2.4500275  v2.4499512v2.4500275v2.4500275v2.4499512v2.4625397v2.4499512h-2.4499512h-2.4500275h-2.4500275v2.4500275h-2.4499512h-2.4500275  v2.4500275h-2.4500275v2.4499512v2.4500275v2.4500275v2.4499512h2.4500275v2.4500275h2.4500275h2.4499512h2.4500275h2.4500275  v-2.4500275H34.0625h2.4500275v-2.4499512v-2.4500275h2.4500275V73.287468v-2.4499512v-2.4500275v-2.4500275v-2.4499512V61.024971  v-2.4499512v-2.4500275v-2.4500275v-2.4499512v-2.4500275v-2.4500275h2.4499512h2.4625397h2.4499512h2.4500275v-2.4499512h2.4500275  h2.4499512h2.4500275h2.4500275v-2.4500275h2.4499512h2.4500275h2.4499512h2.4500275V38.975029h2.4500275h2.4624634h2.4500275  v2.4499512v2.4500275v2.4499512v2.4500275v2.4500275v2.4499512v2.4500275v2.4500275h-2.4500275h-2.4624634h-2.4500275v2.4499512  h-2.4500275h-2.4499512v2.4625397h-2.4500275v2.4499512v2.4500275v2.4500275v2.4499512h2.4500275v2.4500275h2.4499512h2.4500275  h2.4500275h2.4624634V73.287468h2.4500275h2.4500275v-2.4499512v-2.4500275h2.4499512v-2.4500275v-2.4499512V61.024971v-2.4499512  v-2.4500275v-2.4500275v-2.4499512v-2.4500275v-2.4500275v-2.4499512v-2.4500275V38.975029v-2.4500275v-2.4500275v-2.4624634  v-2.4500275v-2.4500275v-2.4499512v-2.4500275v-2.4499512H78.187561V16.9124985z M41.4125061,29.1624832h2.4625397h2.4499512  h2.4500275v-2.4500275h2.4500275h2.4499512h2.4500275h2.4500275v-2.4499512h2.4499512h2.4500275h2.4499512h2.4500275v-2.4500275  h2.4500275h2.4624634h2.4500275v2.4500275v2.4499512v2.4500275v2.4500275v2.4624634h-2.4500275h-2.4624634h-2.4500275h-2.4500275  v2.4500275h-2.4499512h-2.4500275H58.575058h-2.4500275v2.4500275h-2.4500275h-2.4499512h-2.4500275h-2.4500275v2.4499512  h-2.4499512h-2.4625397h-2.4499512V38.975029v-2.4500275v-2.4500275v-2.4624634v-2.4500275H41.4125061z"/></svg>