<svg xmlns="http://www.w3.org/2000/svg" data-name="Layer 1" viewBox="0 0 48 60" x="0px" y="0px"><title>3-bonus</title><polygon points="46.12 16.13 46.12 22.5 43.13 22.5 43.13 25.88 40.13 25.88 40.13 29.25 36.75 29.25 36.75 35.25 40.13 35.25 40.13 42 43.13 42 43.13 48 36.75 48 36.75 45 33.75 45 33.75 42 27 42 27 38.62 21 38.62 21 42 14.25 42 14.25 45 11.25 45 11.25 48 4.87 48 4.87 42 7.87 42 7.87 35.25 11.25 35.25 11.25 29.25 7.87 29.25 7.87 25.88 4.87 25.88 4.87 22.5 1.88 22.5 1.88 16.13 14.25 16.13 14.25 13.12 17.63 13.12 17.63 6.75 21 6.75 21 0 27 0 27 6.75 30.37 6.75 30.37 13.12 33.75 13.12 33.75 16.13 46.12 16.13"/></svg>